<?xml version="1.0" standalone="no"?>
<!DOCTYPE svg PUBLIC "-//W3C//DTD SVG 20010904//EN"
 "http://www.w3.org/TR/2001/REC-SVG-20010904/DTD/svg10.dtd">
<svg version="1.0" xmlns="http://www.w3.org/2000/svg"
 width="1040.000000pt" height="1040.000000pt" viewBox="0 0 1040.000000 1040.000000"
 preserveAspectRatio="xMidYMid meet">
<metadata>
Created by potrace 1.14, written by Peter Selinger 2001-2017
</metadata>
<g transform="translate(0.000000,1040.000000) scale(0.100000,-0.100000)"
fill="#000000" stroke="none">
<path d="M4618 10324 c-2 -1 -17 -5 -33 -8 -17 -2 -31 -5 -32 -5 -1 -1 1 -11
5 -23 5 -13 5 -36 2 -53 -3 -16 -3 -40 1 -52 5 -12 4 -25 -1 -28 -5 -3 -6 -16
-1 -28 4 -12 4 -35 1 -52 -3 -16 -3 -40 1 -52 5 -12 4 -25 -1 -28 -5 -3 -6
-16 -1 -28 4 -12 4 -35 1 -52 -3 -16 -3 -40 1 -52 5 -12 4 -25 -1 -28 -5 -3
-6 -16 -2 -28 4 -12 6 -37 5 -54 -6 -73 -5 -131 1 -142 4 -6 2 -11 -4 -11 -6
0 -8 -5 -5 -10 6 -10 7 -33 4 -162 -1 -31 2 -62 7 -69 5 -8 3 -10 -6 -4 -8 5
-11 4 -7 -2 6 -10 8 -72 6 -159 -1 -29 1 -57 5 -63 4 -6 2 -11 -4 -11 -6 0 -8
-5 -5 -10 6 -10 7 -33 4 -162 -1 -31 2 -62 7 -69 5 -8 3 -10 -6 -4 -8 5 -11 4
-7 -2 6 -10 8 -72 6 -159 -1 -29 1 -57 5 -63 4 -6 2 -11 -4 -11 -6 0 -8 -5 -5
-10 6 -10 7 -34 4 -157 -1 -28 2 -56 5 -62 4 -5 2 -12 -3 -16 -6 -3 -7 -15 -2
-28 4 -12 4 -35 1 -52 -3 -16 -3 -40 1 -52 5 -12 4 -25 -1 -28 -5 -3 -6 -16
-1 -28 4 -12 4 -35 1 -52 -3 -16 -3 -40 1 -52 5 -12 4 -25 -1 -28 -5 -3 -6
-16 -1 -28 4 -12 4 -35 1 -52 -3 -16 -3 -40 1 -52 5 -12 4 -25 -1 -28 -5 -3
-6 -16 -2 -28 4 -12 6 -37 5 -54 -6 -73 -5 -131 1 -142 4 -6 2 -11 -4 -11 -6
0 -8 -5 -5 -10 6 -10 7 -33 4 -162 -1 -31 2 -62 7 -69 5 -8 3 -10 -6 -4 -8 5
-11 4 -7 -2 6 -10 8 -72 6 -159 -1 -29 1 -57 5 -63 4 -6 2 -11 -4 -11 -6 0 -8
-5 -5 -10 6 -10 7 -33 4 -162 -1 -31 2 -62 7 -69 5 -8 3 -10 -6 -4 -8 5 -11 4
-7 -2 6 -10 8 -72 6 -159 -1 -29 1 -57 5 -63 4 -6 2 -11 -4 -11 -6 0 -8 -5 -5
-10 6 -10 7 -34 4 -157 -1 -28 2 -56 5 -62 4 -5 2 -12 -3 -16 -6 -3 -7 -15 -2
-28 4 -12 4 -35 1 -52 -3 -16 -3 -40 1 -52 5 -12 4 -25 -1 -28 -5 -3 -6 -16
-1 -28 4 -12 4 -35 1 -52 -3 -16 -3 -40 1 -52 5 -12 4 -25 -1 -28 -5 -3 -6
-16 -1 -28 4 -12 4 -35 1 -52 -3 -16 -3 -40 1 -52 5 -12 4 -25 -1 -28 -5 -3
-6 -16 -2 -28 4 -12 6 -37 5 -54 -6 -73 -5 -131 1 -142 4 -6 2 -11 -4 -11 -6
0 -8 -5 -5 -10 6 -10 7 -33 4 -162 -1 -31 2 -62 7 -69 5 -8 3 -10 -6 -4 -8 5
-11 4 -7 -2 6 -10 8 -72 6 -159 -1 -29 1 -57 5 -63 4 -6 2 -11 -4 -11 -6 0 -8
-5 -5 -10 6 -10 7 -33 4 -162 -1 -31 2 -62 7 -69 5 -8 3 -10 -6 -4 -8 5 -11 4
-7 -2 6 -10 8 -72 6 -159 -1 -29 1 -57 5 -63 4 -6 2 -11 -4 -11 -6 0 -8 -5 -5
-10 6 -10 7 -34 4 -157 -1 -28 2 -56 5 -62 4 -5 2 -12 -3 -16 -6 -3 -7 -15 -2
-28 4 -12 4 -35 1 -52 -3 -16 -3 -40 1 -52 5 -12 4 -25 -1 -28 -5 -3 -6 -16
-1 -28 4 -12 4 -35 1 -52 -3 -16 -3 -40 1 -52 5 -12 4 -25 -1 -28 -5 -3 -6
-16 -1 -28 4 -12 4 -35 1 -52 -3 -16 -3 -40 1 -52 5 -12 4 -25 -1 -28 -5 -3
-6 -16 -2 -28 4 -12 6 -37 5 -54 -6 -73 -5 -131 1 -142 4 -6 2 -11 -4 -11 -6
0 -8 -5 -5 -10 6 -10 7 -33 4 -162 -1 -31 2 -62 7 -69 5 -8 3 -10 -6 -4 -8 5
-11 4 -7 -2 6 -10 8 -72 6 -159 -1 -29 1 -57 5 -63 4 -6 2 -11 -4 -11 -6 0 -8
-5 -5 -10 6 -10 7 -33 4 -162 -1 -31 2 -62 7 -69 5 -8 3 -10 -6 -4 -8 5 -11 4
-7 -2 6 -10 8 -72 6 -159 -1 -29 1 -57 5 -63 4 -6 2 -11 -4 -11 -6 0 -8 -5 -5
-10 6 -10 7 -34 4 -157 -1 -28 2 -56 5 -62 4 -5 2 -12 -4 -16 -6 -4 -7 -13 -1
-23 5 -9 5 -26 1 -37 -4 -11 -4 -30 1 -42 5 -13 4 -25 -2 -28 -15 -10 0 -25
24 -25 12 0 29 0 37 -1 8 0 45 0 82 1 37 1 71 -1 76 -3 4 -3 14 -2 21 3 8 4
27 4 42 0 16 -5 31 -5 34 0 3 4 20 4 39 0 19 -4 40 -4 46 0 7 4 26 4 41 0 16
-5 31 -5 34 0 3 4 20 4 39 0 19 -4 40 -4 47 0 7 5 22 4 35 0 15 -6 26 -5 33 4
8 10 12 109 10 266 0 8 0 62 0 120 0 58 0 112 0 120 -1 8 -1 62 0 120 0 58 0
112 0 120 0 8 0 62 0 120 0 58 0 112 0 120 -1 8 -1 62 0 120 0 58 0 112 0 120
0 8 0 62 0 120 0 58 0 112 0 120 -1 8 -1 62 0 120 0 58 0 112 0 120 0 8 0 62
0 120 0 58 0 112 0 120 -1 8 -1 62 0 120 0 58 0 112 0 120 0 8 0 62 0 120 0
58 0 112 0 120 -1 8 0 85 1 170 1 85 0 160 -1 165 -1 6 -1 13 0 17 0 5 1 170
0 208 0 8 0 62 0 120 0 58 0 112 0 120 -1 8 -1 62 0 120 0 58 0 112 0 120 0 8
0 62 0 120 0 58 0 112 0 120 -1 8 -1 62 0 120 0 58 0 112 0 120 0 8 0 62 0
120 0 58 0 112 0 120 -1 8 -1 62 0 120 0 58 0 112 0 120 0 8 0 62 0 120 0 58
0 112 0 120 -1 8 -1 62 0 120 0 58 0 112 0 120 0 8 0 62 0 120 0 58 0 112 0
120 -1 8 -1 62 0 120 0 58 0 112 0 120 0 8 0 62 0 120 0 58 0 112 0 120 -1 8
-1 62 0 120 0 58 0 112 0 120 0 8 0 62 0 120 0 58 0 112 0 120 -1 8 -1 62 0
120 0 58 0 112 0 120 0 8 0 62 0 120 0 58 0 112 0 120 -1 8 -1 62 0 120 0 58
0 112 0 120 0 8 0 62 0 120 0 58 0 112 0 120 -1 8 -1 62 0 120 0 58 0 112 0
120 0 8 0 62 0 120 0 58 0 112 0 120 -1 8 -1 69 0 135 0 66 0 128 0 138 0 17
-22 22 -89 18 -26 -1 -101 -1 -147 0 -16 1 -50 1 -78 0 -27 0 -57 -1 -65 0 -8
0 -44 0 -80 0 -36 -1 -77 0 -92 2 -15 3 -29 3 -30 1z"/>
<path d="M7054 10322 c-7 -5 -11 -1058 -12 -3597 -1 -1974 -2 -3597 -2 -3605
0 -8 1 -28 3 -45 1 -16 -1 -42 -5 -57 -3 -15 -2 -30 3 -34 5 -3 7 -10 3 -15
-3 -5 -7 -44 -9 -87 -10 -184 -22 -310 -45 -457 -6 -33 -12 -70 -14 -81 -2
-12 -7 -39 -10 -60 -4 -22 -11 -57 -17 -79 -6 -22 -13 -51 -16 -65 -7 -37 -28
-117 -38 -148 -3 -7 -5 -16 -6 -20 -8 -44 -93 -261 -136 -347 -90 -182 -171
-295 -315 -437 -71 -71 -135 -128 -143 -128 -7 0 -15 -4 -17 -8 -9 -23 -298
-193 -298 -175 0 3 -6 1 -12 -4 -20 -16 -210 -83 -278 -98 -15 -4 -127 -29
-135 -31 -18 -4 -60 -12 -95 -18 -83 -14 -98 -16 -150 -21 -30 -3 -64 -7 -75
-10 -104 -22 -619 -23 -800 -1 -16 2 -61 7 -100 11 -38 4 -73 9 -77 11 -4 3
-26 7 -50 10 -71 9 -304 72 -403 109 -111 42 -254 114 -355 180 -41 27 -77 52
-80 55 -3 3 -25 21 -50 41 -102 82 -262 261 -300 336 -8 15 -18 30 -21 33 -3
3 -21 34 -40 70 -19 36 -37 67 -40 70 -3 3 -20 43 -39 90 -19 47 -38 89 -42
94 -4 6 -8 19 -8 31 0 12 -4 25 -9 31 -6 5 -12 20 -16 34 -3 14 -21 84 -39
155 -19 72 -37 150 -41 175 -4 25 -8 54 -10 65 -1 11 -5 36 -9 56 -3 20 -8 60
-11 90 -3 30 -8 77 -11 104 -5 38 -15 792 -14 1050 l0 40 -273 -2 c-149 -1
-282 -2 -295 -2 -18 -1 -23 -6 -22 -23 1 -13 1 -27 0 -33 -4 -22 0 -136 5
-145 3 -5 2 -11 -3 -14 -4 -2 -5 -32 -2 -65 3 -34 3 -61 0 -61 -3 0 -3 -25 0
-55 3 -30 3 -55 -1 -55 -3 0 -3 -18 1 -40 4 -22 5 -40 1 -40 -3 0 -5 -44 -3
-97 2 -54 2 -109 2 -123 -1 -14 -2 -29 -1 -35 0 -5 2 -66 5 -135 6 -171 14
-264 31 -390 4 -25 8 -56 10 -70 4 -29 26 -170 30 -185 1 -5 5 -21 8 -35 4
-14 9 -36 12 -50 2 -14 9 -42 14 -62 5 -21 6 -38 3 -38 -3 0 -1 -5 6 -12 7 -7
12 -20 12 -30 0 -49 104 -316 183 -467 49 -95 179 -302 208 -331 9 -8 20 -22
25 -32 15 -27 114 -138 188 -212 78 -77 248 -216 264 -216 6 0 12 -4 14 -8 16
-40 501 -286 554 -281 4 0 10 -3 13 -8 11 -15 285 -96 371 -109 19 -3 43 -7
52 -10 10 -3 28 -7 40 -9 13 -2 41 -7 63 -10 42 -7 72 -11 145 -20 25 -3 61
-7 80 -9 166 -22 623 -22 815 -1 17 1 63 6 102 9 40 4 83 9 95 12 13 2 40 6
62 9 52 7 93 14 146 26 25 6 56 13 70 15 22 4 50 10 88 21 6 1 18 4 25 6 66
18 104 29 117 34 8 3 20 7 25 9 6 1 26 8 45 15 43 15 63 22 70 24 3 1 22 9 44
18 21 9 41 17 43 17 7 0 66 26 192 87 111 53 279 154 293 177 4 6 8 7 8 3 0
-5 13 2 28 15 16 12 49 39 73 58 46 37 230 218 264 260 11 14 48 63 82 110 35
47 66 90 70 95 5 6 17 27 28 47 11 21 23 38 27 38 5 0 8 5 8 11 0 6 10 25 22
42 13 18 22 34 22 37 -2 9 19 54 33 71 8 9 16 27 18 39 3 13 8 26 13 29 5 3
11 15 15 26 3 11 24 67 46 125 23 58 43 112 45 120 2 8 6 22 9 30 7 18 74 265
82 304 3 14 7 38 10 54 3 15 8 34 10 42 3 8 7 32 11 54 3 21 8 48 10 60 2 11
7 37 9 56 3 19 8 51 11 70 3 19 7 55 9 80 2 25 6 63 9 85 3 22 8 90 12 150 11
165 11 7606 0 7612 -5 3 -43 5 -85 4 -42 -1 -94 -1 -116 -1 -68 2 -88 2 -145
1 -77 -1 -118 -2 -168 -4 -23 -1 -43 1 -45 5 -1 4 -7 4 -13 0z"/>
</g>
</svg>
